<svg xmlns="http://www.w3.org/2000/svg" viewBox="0 0 500 500"><defs><style>.a{fill:#066a9d;}.b{fill:#fff;}</style></defs><title>Tillid</title><rect class="a" width="500" height="500"/><path class="b" d="M175.65,204.31h-24.4v81.06H131.75V204.31H107.21v-10.1h68.44Z" transform="translate(-0.75 -1.29)"/><path class="b" d="M195.43,183.27a10.31,10.31,0,0,1,7.15,2.66,11.46,11.46,0,0,1,3.09,8,11.8,11.8,0,0,1-3.09,8.13,11,11,0,0,1-7.15,2.66,10.31,10.31,0,0,1-10.66-10.8,11,11,0,0,1,3.23-7.85A10.72,10.72,0,0,1,195.43,183.27Zm9.26,102.1H186V215.25h18.65Z" transform="translate(-0.75 -1.29)"/><path class="b" d="M240.16,285.37H221.51V180.75l18.65-1.12Z" transform="translate(-0.75 -1.29)"/><path class="b" d="M275.79,285.37H257.13V180.75l18.65-1.12Z" transform="translate(-0.75 -1.29)"/><path class="b" d="M302.15,183.27a10.3,10.3,0,0,1,7.15,2.66,11.46,11.46,0,0,1,3.09,8,11.79,11.79,0,0,1-3.09,8.13,11,11,0,0,1-7.15,2.66,10.32,10.32,0,0,1-10.66-10.8,11,11,0,0,1,3.23-7.85A10.71,10.71,0,0,1,302.15,183.27Zm9.26,102.1H292.76V215.25h18.65Z" transform="translate(-0.75 -1.29)"/><path class="b" d="M387.84,285.37H372.28l-2.1-6.31H370s-3.37,7.85-16.83,7.85c-17.53,0-29.31-13.74-29.31-35.06,0-22.86,11.22-38,28.47-38,12.2,0,16.41,5.33,16.41,5.33h.42V180.75l18.65-1.12Zm-18.65-15.85V229.13a15.19,15.19,0,0,0-11.08-4.63c-9.82,0-14.16,6.87-14.16,26.79S348.29,276,357.41,276A14.52,14.52,0,0,0,369.19,269.52Z" transform="translate(-0.75 -1.29)"/></svg>