<?xml version="1.0" encoding="utf-8"?>
<!-- Generator: Adobe Illustrator 22.0.1, SVG Export Plug-In . SVG Version: 6.00 Build 0)  -->
<svg version="1.1" id="Layer_1" xmlns="http://www.w3.org/2000/svg" xmlns:xlink="http://www.w3.org/1999/xlink" x="0px" y="0px"
	 viewBox="0 0 500 500" style="enable-background:new 0 0 500 500;" xml:space="preserve">
<style type="text/css">
	.st0{opacity:0;fill:#066A9D;}
	.st1{fill:#FFFFFF;}
</style>
<rect x="0.2" y="0.3" class="st0" width="500" height="500"/>
<g>
	<path class="st1" d="M110.6,313.1v-97.8H81v-12.2h82.5v12.2h-29.4v97.8H110.6z"/>
	<path class="st1" d="M178.3,212.4c-2.7-2.5-3.9-5.8-3.9-9.6c0-3.7,1.3-6.9,3.9-9.5c2.4-2.3,5.3-3.4,8.9-3.4c3.5,0,6.4,1.1,8.7,3.3
		c2.5,2.7,3.7,5.8,3.7,9.6c0,4-1.2,7.2-3.7,9.8c-2.5,2.2-5.3,3.3-8.7,3.3C183.9,215.8,180.9,214.7,178.3,212.4z M175.9,313.1v-84.5
		h22.5v84.5H175.9z"/>
	<path class="st1" d="M218.7,313.1V186.9l22.5-1.3V313h-22.5V313.1z"/>
	<path class="st1" d="M261.7,313.1V186.9l22.5-1.3V313h-22.5V313.1z"/>
	<path class="st1" d="M307,212.4c-2.7-2.5-3.9-5.8-3.9-9.6c0-3.7,1.3-6.9,3.9-9.5c2.4-2.3,5.3-3.4,8.9-3.4c3.5,0,6.4,1.1,8.7,3.3
		c2.5,2.7,3.7,5.8,3.7,9.6c0,4-1.2,7.2-3.7,9.8c-2.5,2.2-5.3,3.3-8.7,3.3C312.5,215.8,309.6,214.7,307,212.4z M304.7,313.1v-84.5
		h22.5v84.5H304.7z"/>
	<path class="st1" d="M359,309.7c-5.3-3.5-9.5-8.4-12.4-14.8c-2.9-6.4-4.3-13.7-4.3-22.2c0-9.2,1.4-17.1,4.2-24.1
		c2.8-7,6.9-12.3,12.1-16c5.2-3.7,11.2-5.7,18.1-5.7c4.3,0,8.1,0.5,11,1.4c2.9,1,5.2,1.9,6.6,3c1.4,1.1,2.2,1.7,2.2,1.9h0.5V187
		l22.5-1.3v127.4h-18.8l-2.5-7.6h-0.2c0,0.4-0.7,1.3-2,2.9c-1.3,1.6-3.5,3-6.5,4.5s-6.9,2.2-11.7,2.2
		C370.5,314.9,364.4,313.2,359,309.7z M389.9,300.1c2-1.1,3.7-2.4,4.9-3.7c1.2-1.3,1.8-2.2,1.8-2.4v-48.7c-0.2-0.4-0.8-1-1.9-1.8
		s-2.7-1.7-4.6-2.5c-1.9-0.8-4.2-1.3-6.9-1.3c-6,0-10.5,2.4-13.1,7.2c-2.7,4.8-4,13.1-4,25.1c0,7.8,0.6,14,1.8,18.2
		c1.2,4.3,2.9,7.2,5.2,8.9c2.3,1.7,5.4,2.5,9.2,2.5C385.4,301.8,387.9,301.2,389.9,300.1z"/>
</g>
</svg>
